<?xml version="1.0" encoding="utf-8"?>
<svg width="800px" height="800px" viewBox="0 0 1024 1024" class="icon" version="1.1" xmlns="http://www.w3.org/2000/svg">
  <path d="M249.5 455.9c63.2 0 114.5-50.7 114.5-113s-51.4-113-114.5-113c-63.1 0.1-114.5 50.7-114.5 113-0.3 29.6 11.2 57.6 32.2 78.9 21.8 22 51 34.1 82.3 34.1zM175 343c0-40.2 33.4-73 74.5-73s74.5 32.7 74.5 73-33.4 73-74.5 73c-20.5 0-39.7-7.9-53.9-22.3-13.5-13.6-20.8-31.6-20.6-50.5v-0.2zM682.1 507.5l31.8-62.6c7.1-14 8.4-29.2 3.5-41.7-3.8-9.7-11-17-20.2-20.4-4-1.5-8.2-2.3-12.5-2.3-16.8 0-32.6 11.8-44.3 33.1l-27 52.5c-32.9 2.7-50.7 30.9-59.5 44.8l-46.2 74.8-75.7-49.6-0.6-0.4c-45.4-27.5-84.9-48.6-143.7-48.6-4.1 0-8.1 0.2-11.6 0.4-2.6 0.1-5 0.2-6.8 0.2H244.9l-1.7 0.1c-76 8.7-117.1 42.6-138.2 69.4-32.3 41.2-33.6 83.2-33.1 95.8v253.5c0 12.7 4.8 24.7 13.8 34.5l0.8 0.8c9.2 9 22.1 14.1 35.4 14.1h245.9c27.6 0 50.1-22.2 50.1-49.6v-177l61 27.3c9.3 5.1 19.3 7.6 29.6 7.6 33.1 0 61.2-26.6 76.4-51.4l90.6-146.2c14.6-23.9 14.4-40.3 6.6-59.1z" fill="#FFFFFF"/>
  <path d="M901.4 63.5H378.3c-11 0-20 9-20 20s9 20 20 20h523.1c8.3 0 15.1 7.1 15.1 15.8v778.1c0 8.7-6.8 15.8-15.1 15.8h-248c-11 0-20 9-20 20s9 20 20 20h248c30.4 0 55.1-25 55.1-55.8v-778c0-30.8-24.7-55.9-55.1-55.9z" fill="#FFFFFF"/>
  <path d="M828.8 210c0-18.9-15.4-34.4-34.4-34.4h-291c-18.9 0-34.4 15.4-34.4 34.4s15.4 34.4 34.4 34.4h291.1c18.9 0 34.3-15.4 34.3-34.4zM495 294c-13.2 0-24 10.7-24 24 0 13.2 10.7 24 24 24h164.4c13.2 0 24-10.7 24-24 0-13.2-10.7-24-24-24H495z" fill="#FFFFFF"/>
</svg>
